HIERARCHY
ROOT newVegas:Hips
{
	OFFSET 0.000000 96.479958 0.000000
	CHANNELS 6 Xposition Yposition Zposition Xrotation Yrotation Zrotation
	JOINT newVegas:Pelvis
	{
		OFFSET 0.000000 0.000000 0.000000
		CHANNELS 3 Xrotation Yrotation Zrotation
		JOINT newVegas:LeftUpLeg
		{
			OFFSET 18.735201 -5.666702 -4.541200
			CHANNELS 3 Xrotation Yrotation Zrotation
			JOINT newVegas:LeftLeg
			{
				OFFSET -0.021200 -31.938179 0.493100
				CHANNELS 3 Xrotation Yrotation Zrotation
				JOINT newVegas:LeftFoot
				{
					OFFSET 0.021200 -31.938179 -4.336299
					CHANNELS 3 Xrotation Yrotation Zrotation
					JOINT newVegas:LeftToeBase
					{
						OFFSET 0.943001 -26.722000 15.023500
						CHANNELS 3 Xrotation Yrotation Zrotation
						End Site
						{
							OFFSET 0.000000 30.670183 0.000000
						}
					}
				}
				JOINT newVegas:Left_PantLeg
				{
					OFFSET 0.663870 -9.044666 -1.108900
					CHANNELS 3 Xrotation Yrotation Zrotation
					End Site
					{
						OFFSET 1.415995 20.635357 0.000000
					}
				}
			}
		}
		JOINT newVegas:RightUpLeg
		{
			OFFSET -18.735201 -5.666702 -4.541200
			CHANNELS 3 Xrotation Yrotation Zrotation
			JOINT newVegas:RightLeg
			{
				OFFSET 0.018946 -31.938133 0.493100
				CHANNELS 3 Xrotation Yrotation Zrotation
				JOINT newVegas:RightFoot
				{
					OFFSET -0.018946 -31.938126 -4.336299
					CHANNELS 3 Xrotation Yrotation Zrotation
					JOINT newVegas:RightToeBase
					{
						OFFSET -0.943001 -26.722004 15.023500
						CHANNELS 3 Xrotation Yrotation Zrotation
						End Site
						{
							OFFSET 0.000000 30.670187 0.000000
						}
					}
				}
				JOINT newVegas:Right_PantLeg
				{
					OFFSET -0.661674 -9.044716 -1.108900
					CHANNELS 3 Xrotation Yrotation Zrotation
					End Site
					{
						OFFSET -1.415958 20.635269 0.000000
					}
				}
			}
		}
	}
	JOINT newVegas:Spine
	{
		OFFSET 0.000000 10.199997 -0.299500
		CHANNELS 3 Xrotation Yrotation Zrotation
		JOINT newVegas:Spine1
		{
			OFFSET 0.000000 11.900002 -1.516600
			CHANNELS 3 Xrotation Yrotation Zrotation
			JOINT newVegas:Spine2
			{
				OFFSET 0.000000 13.600006 -2.842500
				CHANNELS 3 Xrotation Yrotation Zrotation
				JOINT newVegas:Neck
				{
					OFFSET 0.000000 9.624100 -2.890100
					CHANNELS 3 Xrotation Yrotation Zrotation
					JOINT newVegas:Head
					{
						OFFSET 0.000000 14.068802 -1.351900
						CHANNELS 3 Xrotation Yrotation Zrotation
						JOINT newVegas:Hair_Back
						{
							OFFSET 0.000000 3.231903 -17.524799
							CHANNELS 3 Xrotation Yrotation Zrotation
							End Site
							{
								OFFSET 0.000000 19.849884 0.000000
							}
						}
						JOINT newVegas:Hair_Front
						{
							OFFSET 0.000000 31.260406 4.573800
							CHANNELS 3 Xrotation Yrotation Zrotation
							JOINT newVegas:Hair_Front1
							{
								OFFSET 0.000000 2.284103 11.993300
								CHANNELS 3 Xrotation Yrotation Zrotation
								JOINT newVegas:Hair_Front2
								{
									OFFSET 0.000000 2.284103 11.993300
									CHANNELS 3 Xrotation Yrotation Zrotation
									End Site
									{
										OFFSET 0.000000 12.208862 0.000000
									}
								}
							}
						}
						JOINT newVegas:Jowel
						{
							OFFSET 0.000000 -7.458206 6.864100
							CHANNELS 3 Xrotation Yrotation Zrotation
							End Site
							{
								OFFSET 0.000000 19.849884 0.000000
							}
						}
					}
				}
				JOINT newVegas:LeftShoulder
				{
					OFFSET 15.263000 10.923401 -0.547700
					CHANNELS 3 Xrotation Yrotation Zrotation
					JOINT newVegas:LeftArm
					{
						OFFSET 25.438599 -2.830597 -13.032500
						CHANNELS 3 Xrotation Yrotation Zrotation
						JOINT newVegas:LeftForeArm
						{
							OFFSET 29.960503 0.000000 0.000000
							CHANNELS 3 Xrotation Yrotation Zrotation
							JOINT newVegas:LeftHand
							{
								OFFSET 27.849251 0.000000 0.000000
								CHANNELS 3 Xrotation Yrotation Zrotation
								JOINT newVegas:LeftHandThumb1
								{
									OFFSET 4.487587 -3.305161 6.305391
									CHANNELS 3 Xrotation Yrotation Zrotation
									JOINT newVegas:LeftHandThumb2
									{
										OFFSET 5.480453 -3.164139 3.164143
										CHANNELS 3 Xrotation Yrotation Zrotation
										JOINT newVegas:LeftHandThumb3
										{
											OFFSET 5.159721 -2.978973 2.978967
											CHANNELS 3 Xrotation Yrotation Zrotation
											End Site
											{
												OFFSET 2.494507 5.926697 1.738678
											}
										}
									}
								}
								JOINT newVegas:LeftHandIndex1
								{
									OFFSET 18.578728 -0.527832 5.208049
									CHANNELS 3 Xrotation Yrotation Zrotation
									JOINT newVegas:LeftHandIndex2
									{
										OFFSET 3.192009 0.000000 0.000000
										CHANNELS 3 Xrotation Yrotation Zrotation
										JOINT newVegas:LeftHandIndex3
										{
											OFFSET 3.835129 0.000000 0.000000
											CHANNELS 3 Xrotation Yrotation Zrotation
											End Site
											{
												OFFSET -0.034599 3.816971 0.371180
											}
										}
									}
								}
								JOINT newVegas:LeftHandMiddle1
								{
									OFFSET 18.476105 0.000000 0.000000
									CHANNELS 3 Xrotation Yrotation Zrotation
									JOINT newVegas:LeftHandMiddle2
									{
										OFFSET 3.324875 0.000000 0.000000
										CHANNELS 3 Xrotation Yrotation Zrotation
										JOINT newVegas:LeftHandMiddle3
										{
											OFFSET 4.596550 0.000000 0.000000
											CHANNELS 3 Xrotation Yrotation Zrotation
											End Site
											{
												OFFSET 0.057701 4.578827 0.399218
											}
										}
									}
								}
								JOINT newVegas:LeftHandRing1
								{
									OFFSET 17.732719 0.121887 -4.201567
									CHANNELS 3 Xrotation Yrotation Zrotation
									JOINT newVegas:LeftHandRing2
									{
										OFFSET 2.733170 0.000000 0.000000
										CHANNELS 3 Xrotation Yrotation Zrotation
										JOINT newVegas:LeftHandRing3
										{
											OFFSET 3.178268 0.000000 0.000000
											CHANNELS 3 Xrotation Yrotation Zrotation
											End Site
											{
												OFFSET 0.119102 3.170624 0.185394
											}
										}
									}
								}
								JOINT newVegas:LeftHandPinky1
								{
									OFFSET 15.989624 -0.606689 -7.535461
									CHANNELS 3 Xrotation Yrotation Zrotation
									JOINT newVegas:LeftHandPinky2
									{
										OFFSET 2.538986 0.000000 0.000000
										CHANNELS 3 Xrotation Yrotation Zrotation
										JOINT newVegas:LeftHandPinky3
										{
											OFFSET 2.593102 0.000000 0.000000
											CHANNELS 3 Xrotation Yrotation Zrotation
											End Site
											{
												OFFSET -0.150902 2.584198 0.152708
											}
										}
									}
								}
							}
							JOINT newVegas:Left_Sleeve
							{
								OFFSET 0.267448 -0.649796 0.577675
								CHANNELS 3 Xrotation Yrotation Zrotation
								End Site
								{
									OFFSET 0.000000 15.991241 0.000000
								}
							}
							JOINT newVegas:Left_CapeC
							{
								OFFSET 15.715958 -8.608795 -6.935905
								CHANNELS 3 Xrotation Yrotation Zrotation
								JOINT newVegas:Left_CapeC1
								{
									OFFSET 0.000000 -8.688499 0.000000
									CHANNELS 3 Xrotation Yrotation Zrotation
									End Site
									{
										OFFSET 0.000000 8.688499 0.000000
									}
								}
							}
						}
						JOINT newVegas:Left_CapeB
						{
							OFFSET 26.118385 -8.608795 -7.079235
							CHANNELS 3 Xrotation Yrotation Zrotation
							JOINT newVegas:Left_CapeB1
							{
								OFFSET 0.000000 -8.688499 0.000000
								CHANNELS 3 Xrotation Yrotation Zrotation
								End Site
								{
									OFFSET 0.000000 8.688499 0.000000
								}
							}
						}
						JOINT newVegas:Left_CapeA
						{
							OFFSET 5.115639 -8.608795 -10.395809
							CHANNELS 3 Xrotation Yrotation Zrotation
							JOINT newVegas:Left_CapeA1
							{
								OFFSET 0.000000 -8.688499 0.000000
								CHANNELS 3 Xrotation Yrotation Zrotation
								End Site
								{
									OFFSET 0.000000 8.688499 0.000000
								}
							}
						}
					}
				}
				JOINT newVegas:RightShoulder
				{
					OFFSET -15.263000 10.923401 -0.547700
					CHANNELS 3 Xrotation Yrotation Zrotation
					JOINT newVegas:RightArm
					{
						OFFSET -25.438599 -2.830597 -13.032500
						CHANNELS 3 Xrotation Yrotation Zrotation
						JOINT newVegas:RightForeArm
						{
							OFFSET -29.960503 0.000000 0.000000
							CHANNELS 3 Xrotation Yrotation Zrotation
							JOINT newVegas:RightHand
							{
								OFFSET -27.849251 0.000000 0.000000
								CHANNELS 3 Xrotation Yrotation Zrotation
								JOINT newVegas:RightHandThumb1
								{
									OFFSET -4.487587 -3.305161 6.305391
									CHANNELS 3 Xrotation Yrotation Zrotation
									JOINT newVegas:RightHandThumb2
									{
										OFFSET -5.480453 -3.164139 3.164143
										CHANNELS 3 Xrotation Yrotation Zrotation
										JOINT newVegas:RightHandThumb3
										{
											OFFSET -5.159721 -2.978973 2.978967
											CHANNELS 3 Xrotation Yrotation Zrotation
											End Site
											{
												OFFSET -2.494507 5.926697 1.738678
											}
										}
									}
								}
								JOINT newVegas:RightHandIndex1
								{
									OFFSET -18.578728 -0.527832 5.208049
									CHANNELS 3 Xrotation Yrotation Zrotation
									JOINT newVegas:RightHandIndex2
									{
										OFFSET -3.192009 0.000000 0.000000
										CHANNELS 3 Xrotation Yrotation Zrotation
										JOINT newVegas:RightHandIndex3
										{
											OFFSET -3.835129 0.000000 0.000000
											CHANNELS 3 Xrotation Yrotation Zrotation
											End Site
											{
												OFFSET 0.034599 3.816971 0.371180
											}
										}
									}
								}
								JOINT newVegas:RightHandMiddle1
								{
									OFFSET -18.476105 0.000000 0.000000
									CHANNELS 3 Xrotation Yrotation Zrotation
									JOINT newVegas:RightHandMiddle2
									{
										OFFSET -3.324875 0.000000 0.000000
										CHANNELS 3 Xrotation Yrotation Zrotation
										JOINT newVegas:RightHandMiddle3
										{
											OFFSET -4.596550 0.000000 0.000000
											CHANNELS 3 Xrotation Yrotation Zrotation
											End Site
											{
												OFFSET -0.057701 4.578827 0.399218
											}
										}
									}
								}
								JOINT newVegas:RightHandRing1
								{
									OFFSET -17.732719 0.121887 -4.201567
									CHANNELS 3 Xrotation Yrotation Zrotation
									JOINT newVegas:RightHandRing2
									{
										OFFSET -2.733170 0.000000 0.000000
										CHANNELS 3 Xrotation Yrotation Zrotation
										JOINT newVegas:RightHandRing3
										{
											OFFSET -3.178268 0.000000 0.000000
											CHANNELS 3 Xrotation Yrotation Zrotation
											End Site
											{
												OFFSET -0.119102 3.170624 0.185394
											}
										}
									}
								}
								JOINT newVegas:RightHandPinky1
								{
									OFFSET -15.989624 -0.606689 -7.535461
									CHANNELS 3 Xrotation Yrotation Zrotation
									JOINT newVegas:RightHandPinky2
									{
										OFFSET -2.538986 0.000000 0.000000
										CHANNELS 3 Xrotation Yrotation Zrotation
										JOINT newVegas:RightHandPinky3
										{
											OFFSET -2.593102 0.000000 0.000000
											CHANNELS 3 Xrotation Yrotation Zrotation
											End Site
											{
												OFFSET 0.150902 2.584198 0.152708
											}
										}
									}
								}
							}
							JOINT newVegas:Right_CapeC
							{
								OFFSET -15.715958 -8.608795 -6.935905
								CHANNELS 3 Xrotation Yrotation Zrotation
								JOINT newVegas:Right_CapeC1
								{
									OFFSET 0.000000 -8.688499 0.000000
									CHANNELS 3 Xrotation Yrotation Zrotation
									End Site
									{
										OFFSET 0.000000 8.688499 0.000000
									}
								}
							}
							JOINT newVegas:Right_Sleeve
							{
								OFFSET -0.267448 -0.649994 0.577675
								CHANNELS 3 Xrotation Yrotation Zrotation
								End Site
								{
									OFFSET 0.000000 15.991302 0.000000
								}
							}
						}
						JOINT newVegas:Right_CapeA
						{
							OFFSET -5.115540 -8.608795 -10.395824
							CHANNELS 3 Xrotation Yrotation Zrotation
							JOINT newVegas:Right_CapeA1
							{
								OFFSET 0.000000 -8.688499 0.000000
								CHANNELS 3 Xrotation Yrotation Zrotation
								End Site
								{
									OFFSET 0.000000 8.688499 0.000000
								}
							}
						}
						JOINT newVegas:Right_CapeB
						{
							OFFSET -26.118187 -8.608795 -7.079266
							CHANNELS 3 Xrotation Yrotation Zrotation
							JOINT newVegas:Right_CapeB1
							{
								OFFSET 0.000000 -8.688499 0.000000
								CHANNELS 3 Xrotation Yrotation Zrotation
								End Site
								{
									OFFSET 0.000000 8.688499 0.000000
								}
							}
						}
					}
				}
				JOINT newVegas:Left_Collar
				{
					OFFSET 18.625099 8.655502 8.828100
					CHANNELS 3 Xrotation Yrotation Zrotation
					JOINT newVegas:Left_Collar1
					{
						OFFSET 14.783401 10.540405 -1.259500
						CHANNELS 3 Xrotation Yrotation Zrotation
						End Site
						{
							OFFSET 0.000000 18.199875 0.000000
						}
					}
				}
				JOINT newVegas:Collar_Back
				{
					OFFSET 0.000000 15.630707 -20.132601
					CHANNELS 3 Xrotation Yrotation Zrotation
					End Site
					{
						OFFSET 0.000000 22.523010 0.000000
					}
				}
				JOINT newVegas:Left_Peck
				{
					OFFSET 17.239599 -5.132599 25.482599
					CHANNELS 3 Xrotation Yrotation Zrotation
					End Site
					{
						OFFSET 0.000000 22.523010 0.000000
					}
				}
				JOINT newVegas:Right_Peck
				{
					OFFSET -17.239599 -5.132202 25.482599
					CHANNELS 3 Xrotation Yrotation Zrotation
					End Site
					{
						OFFSET 0.000000 22.523010 0.000000
					}
				}
				JOINT newVegas:Right_Collar
				{
					OFFSET -18.625099 8.655792 8.828100
					CHANNELS 3 Xrotation Yrotation Zrotation
					JOINT newVegas:Right_Collar1
					{
						OFFSET -14.783401 10.539993 -1.259500
						CHANNELS 3 Xrotation Yrotation Zrotation
						End Site
						{
							OFFSET 0.000000 18.199631 0.000000
						}
					}
				}
			}
		}
		JOINT newVegas:Belly
		{
			OFFSET 0.000000 -6.540398 9.014299
			CHANNELS 3 Xrotation Yrotation Zrotation
			End Site
			{
				OFFSET 0.000000 11.566666 0.000000
			}
		}
	}
	JOINT newVegas:ElvisFacialAnim_Joint
	{
		OFFSET 1.000000 -95.330101 -8.825800
		CHANNELS 3 Xrotation Yrotation Zrotation
		End Site
		{
			OFFSET 0.000000 35.315800 0.000000
		}
	}
}
MOTION
Frames: 4
Frame Time: 0.016667
0.203093 92.005951 4.492122 -2.793351 -0.944184 2.228708 0.000000 -0.000000 0.000000 -0.350666 -0.095707 -19.427633 13.827933 10.142710 3.550716 -16.268180 14.603849 11.945896 -0.000000 -0.000000 0.000000 -0.000000 -0.000000 -0.000000 -28.805589 -5.254759 3.325378 31.544180 -10.807547 -3.633060 -2.676862 -16.017888 -4.240674 -0.000000 -0.000002 0.000000 0.000000 -0.000001 -0.000002 -3.710213 1.968583 3.031335 1.825086 0.204639 -3.563413 1.839735 0.222339 -3.555415 -0.016042 -1.217680 -0.007832 -0.016044 -1.217680 -0.007832 0.000000 -0.000000 -0.000000 -0.015971 -1.217678 -0.007831 -0.016058 -1.217684 -0.007831 0.000000 0.000000 -0.000000 0.000000 -0.000000 -0.000000 3.264880 -13.066457 -8.920290 12.299516 32.230806 -77.872257 0.000011 -37.449504 0.000030 11.318188 5.111729 -3.307899 -6.694187 7.651332 20.042545 11.568884 23.611307 -7.394423 0.000001 -0.000002 -0.000003 -0.982644 -2.594470 -15.812769 0.762405 3.154214 -27.170286 -0.000001 -0.000001 -0.000004 -0.144669 0.710054 -18.764154 0.628383 2.878560 -24.623956 0.000000 -0.000000 0.000002 0.773680 3.364639 -19.548497 1.234029 3.938332 -34.783609 -0.000000 -0.000001 0.000002 3.973833 12.688241 -18.446039 1.306907 -0.044010 -36.042724 0.000002 -0.000003 0.000000 -0.000000 -0.000001 -0.000000 -0.000000 -0.000001 -0.000000 -0.000000 -0.000001 0.000000 -0.000000 -0.000001 -0.000000 -0.000000 -0.000001 0.000000 -0.000000 -0.000001 -0.000000 -0.000000 -0.000002 0.000000 1.454488 14.110500 8.503200 54.678325 18.111660 70.211817 -0.000046 75.258781 0.000067 51.346377 35.160588 -70.815920 1.788492 4.679409 9.698141 4.637174 -8.634084 -0.225400 -0.000000 -0.000003 0.000001 8.183367 12.621744 -38.427925 0.272874 -1.932494 16.073532 0.000000 0.000002 -0.000001 3.398846 7.945779 -28.641162 0.564752 -2.749675 23.209755 0.000001 0.000001 -0.000000 1.368549 4.899668 -20.505900 0.144627 -1.413634 11.682868 0.000002 0.000001 0.000000 -3.372273 -9.628496 -18.358809 0.125287 -1.316625 10.870636 -0.000000 -0.000000 0.000000 -0.000000 -0.000004 -0.000002 0.000001 -0.000002 -0.000000 -0.000000 -0.000004 -0.000001 0.000001 -0.000001 -0.000000 0.000001 0.000000 0.000001 0.000001 -0.000001 -0.000000 0.000002 0.000000 0.000002 -0.000000 0.000000 0.000000 -0.000000 0.000000 0.000000 -0.000000 0.000000 0.000000 -0.000000 0.000000 0.000000 -0.000000 0.000000 0.000000 -0.000000 0.000000 0.000000 -0.000000 0.000000 0.000000 -0.000001 -0.000000 -0.000001 0.000000 -0.000000 0.000000 
0.209144 91.998833 4.521284 -2.792069 -0.959707 2.250562 0.000000 0.000000 0.000000 -0.299846 -0.127299 -19.456202 13.767425 10.139791 3.541886 -16.271503 14.618304 11.962525 -0.000000 0.000000 -0.000000 -0.000000 0.000000 -0.000001 -28.838695 -5.248310 3.310057 31.640281 -10.805044 -3.655376 -2.734795 -16.023796 -4.212740 0.000000 -0.000002 0.000000 0.000000 0.000001 -0.000001 -3.776954 1.986402 3.054736 1.845094 0.206904 -3.577331 1.859860 0.224641 -3.569078 -0.014433 -1.218724 -0.002836 -0.014435 -1.218725 -0.002835 0.000000 -0.000000 0.000000 -0.014505 -1.218724 -0.002836 -0.014353 -1.218721 -0.002834 0.000000 -0.000000 -0.000000 0.000000 -0.000000 -0.000000 3.286007 -13.114654 -8.932848 12.556909 32.167790 -77.897030 0.000013 -37.526801 0.000041 11.076585 5.115570 -3.368728 -6.692586 7.656138 20.048852 11.568498 23.610388 -7.394120 0.000001 -0.000003 -0.000001 -0.984539 -2.600913 -15.814569 0.762401 3.154229 -27.170433 0.000000 -0.000001 0.000004 -0.143597 0.713495 -18.767056 0.628414 2.878612 -24.624461 -0.000001 -0.000001 0.000001 0.775399 3.369356 -19.550057 1.233930 3.938200 -34.782199 0.000000 -0.000002 0.000001 3.968877 12.674946 -18.444731 1.307795 -0.042785 -36.055257 -0.000001 0.000000 -0.000005 -0.000001 0.000000 0.000001 -0.000001 0.000000 0.000001 -0.000001 0.000000 0.000001 -0.000000 0.000001 0.000001 -0.000000 0.000001 0.000000 -0.000000 0.000001 0.000001 -0.000000 0.000001 0.000001 1.454901 14.140047 8.517077 54.746637 17.804527 70.167954 -0.000096 75.583570 0.000069 51.021301 35.499498 -69.948001 1.808294 4.619863 9.771579 4.631465 -8.617675 -0.226287 -0.000000 -0.000004 -0.000003 8.218639 12.665213 -38.428533 0.260943 -1.890579 15.715314 -0.000004 0.000002 -0.000001 3.524978 8.091281 -29.060501 0.542019 -2.696004 22.730405 0.000003 -0.000001 0.000001 1.402233 4.961683 -20.710225 0.138316 -1.382725 11.423807 -0.000003 -0.000003 0.000001 -3.444540 -9.677824 -18.618954 0.124957 -1.314978 10.856913 0.000005 -0.000002 -0.000002 0.000001 0.000003 0.000001 0.000000 0.000002 0.000000 0.000001 0.000002 0.000001 -0.000001 -0.000001 0.000002 -0.000001 0.000000 0.000002 -0.000001 -0.000001 0.000002 -0.000001 0.000000 0.000002 -0.000000 0.000000 -0.000000 -0.000000 0.000000 -0.000000 -0.000000 0.000000 -0.000000 -0.000000 0.000000 -0.000000 -0.000000 0.000000 -0.000000 -0.000000 0.000000 -0.000000 -0.000000 0.000000 -0.000000 0.000000 0.000000 -0.000000 0.000000 0.000000 0.000000 
0.215076 91.991936 4.552519 -2.793382 -0.976947 2.269694 -0.000000 0.000000 -0.000000 -0.238777 -0.158121 -19.483441 13.701191 10.136821 3.530633 -16.270421 14.596833 11.980786 -0.000000 -0.000002 0.000000 0.000000 0.000000 -0.000000 -28.863840 -5.240817 3.299622 31.739684 -10.810199 -3.686003 -2.800934 -16.052807 -4.175637 -0.000000 -0.000002 -0.000000 0.000000 0.000001 -0.000000 -3.832889 2.001688 3.079896 1.862634 0.208560 -3.596378 1.877540 0.226432 -3.587913 -0.011652 -1.219809 0.001319 -0.011608 -1.219809 0.001318 -0.000000 -0.000000 0.000000 -0.011715 -1.219810 0.001318 -0.011686 -1.219818 0.001319 0.000000 0.000000 0.000000 -0.000000 -0.000000 -0.000000 3.318908 -13.200824 -8.955619 12.731991 32.102903 -77.867524 -0.000010 -37.603596 -0.000008 10.795350 5.116866 -3.465683 -6.694207 7.651549 20.054322 11.567902 23.609029 -7.393728 0.000001 -0.000000 -0.000003 -0.987174 -2.602661 -15.840532 0.762410 3.154236 -27.170493 -0.000000 -0.000002 -0.000001 -0.146217 0.707050 -18.782508 0.628360 2.878501 -24.623447 0.000001 -0.000000 -0.000001 0.775209 3.367805 -19.567940 1.233936 3.938200 -34.782233 0.000002 -0.000001 0.000002 3.962194 12.657803 -18.441565 1.308455 -0.041874 -36.064638 0.000002 -0.000005 -0.000002 -0.000001 -0.000000 0.000001 -0.000001 -0.000000 0.000001 -0.000001 -0.000000 0.000001 -0.000002 0.000001 0.000001 -0.000002 0.000001 0.000000 -0.000002 0.000001 0.000001 -0.000002 0.000001 0.000001 1.454903 14.165862 8.533177 54.818712 17.557865 70.062373 -0.000044 75.912170 0.000044 50.633808 35.802912 -69.087165 1.823102 4.570013 9.855959 4.626439 -8.603854 -0.227167 0.000001 -0.000002 -0.000001 8.248169 12.701445 -38.429714 0.251182 -1.855532 15.416434 -0.000003 -0.000002 -0.000001 3.638027 8.218637 -29.430643 0.523454 -2.651345 22.332755 -0.000003 0.000001 -0.000000 1.433984 5.019214 -20.901690 0.132909 -1.355688 11.197521 0.000003 -0.000001 -0.000002 -3.501116 -9.709302 -18.829737 0.124333 -1.311667 10.829390 0.000000 0.000002 -0.000001 0.000001 0.000002 -0.000001 0.000001 0.000001 0.000000 0.000001 0.000001 -0.000000 -0.000000 -0.000003 -0.000000 -0.000000 -0.000002 -0.000000 -0.000000 -0.000003 -0.000000 -0.000000 -0.000002 0.000000 -0.000000 0.000000 -0.000000 -0.000000 0.000000 -0.000000 -0.000000 0.000000 -0.000000 -0.000000 0.000000 -0.000000 -0.000000 0.000000 -0.000000 -0.000000 0.000000 -0.000000 -0.000000 0.000000 -0.000000 0.000000 0.000000 0.000000 -0.000000 0.000000 -0.000000 
0.220750 91.984932 4.585584 -2.797262 -0.995462 2.285303 0.000000 0.000000 -0.000000 -0.170467 -0.199588 -19.516057 13.626362 10.133269 3.522507 -16.270477 14.583063 12.005597 0.000000 0.000000 0.000000 0.000001 0.000000 0.000001 -28.882111 -5.237724 3.291010 31.841270 -10.812042 -3.720119 -2.872740 -16.096024 -4.134275 -0.000000 0.000000 0.000000 -0.000000 0.000000 -0.000000 -3.877371 2.013660 3.108967 1.877778 0.209558 -3.619556 1.892843 0.227625 -3.610928 -0.007793 -1.220707 0.004165 -0.007793 -1.220706 0.004166 -0.000000 -0.000000 0.000000 -0.007723 -1.220703 0.004166 -0.007797 -1.220709 0.004167 0.000000 0.000000 0.000000 -0.000000 -0.000000 -0.000000 3.362987 -13.321776 -8.988032 12.831973 32.035763 -77.788519 -0.000007 -37.677291 -0.000037 10.468722 5.116999 -3.597182 -6.697700 7.641062 20.056188 11.567861 23.608909 -7.393659 0.000002 -0.000001 -0.000003 -0.989583 -2.601597 -15.873040 0.762407 3.154229 -27.170470 0.000001 -0.000000 0.000001 -0.151405 0.693343 -18.801820 0.628221 2.878206 -24.620691 -0.000001 0.000001 -0.000003 0.773649 3.361971 -19.594004 1.233945 3.938220 -34.782376 0.000001 -0.000001 0.000002 3.956802 12.642900 -18.440906 1.308770 -0.041440 -36.069013 0.000001 -0.000001 -0.000003 -0.000001 0.000000 -0.000001 -0.000001 0.000000 -0.000001 -0.000001 0.000000 -0.000001 -0.000004 0.000000 -0.000001 -0.000004 0.000000 -0.000001 -0.000004 0.000000 -0.000001 -0.000004 0.000000 -0.000001 1.454658 14.189410 8.551597 54.897335 17.361591 69.904158 0.000033 76.243100 -0.000043 50.198783 36.073173 -68.237661 1.834421 4.526493 9.947624 4.621972 -8.591963 -0.228046 0.000002 -0.000005 -0.000003 8.273472 12.732374 -38.431033 0.242921 -1.825322 15.159146 -0.000002 0.000000 -0.000003 3.741506 8.332695 -29.765818 0.507822 -2.612987 21.992202 0.000001 -0.000000 0.000000 1.464252 5.073225 -21.083629 0.128142 -1.331426 10.994425 0.000001 0.000002 0.000001 -3.546700 -9.728978 -19.006022 0.123505 -1.307325 10.792836 0.000001 0.000002 0.000001 -0.000003 0.000001 -0.000000 0.000000 0.000001 -0.000001 -0.000003 0.000000 -0.000001 -0.000002 0.000000 0.000001 -0.000002 0.000001 0.000001 -0.000002 0.000000 0.000001 -0.000002 0.000001 0.000002 -0.000000 -0.000000 0.000000 -0.000000 -0.000000 0.000000 -0.000000 -0.000000 0.000000 -0.000000 -0.000000 0.000000 -0.000000 -0.000000 0.000000 -0.000000 -0.000000 0.000000 -0.000000 -0.000000 0.000000 -0.000000 0.000000 0.000000 0.000000 0.000000 -0.000000 
